name rise34.3697peak60.0498fall86.3158.mot
datacolumns 19
datarows 15
range 1.24332600000000 1.26666000000000
endheader
time	ground_force1_vx	ground_force1_vy	ground_force1_vz	ground_force1_px	ground_force1_py	ground_force1_pz	ground_force2_vx	ground_force2_vy	ground_force2_vz	ground_force2_px	ground_force2_py	ground_force2_pz	ground_torque1_x	ground_torque1_y	ground_torque1_z	ground_torque2_x	ground_torque2_y	ground_torque2_z	
1.24332600000000	2.88871400000000	678.54358200000001	37.91105700000000	0.28378200000000	0.00000000000000	0.11462600000000	0.00000000000000	0.00000000000000	0.00000000000000	0.00000000000000	0.00000000000000	0.00000000000000	0.00000000000000	20.18148700000000	0.00000000000000	0.00000000000000	0.00000000000000	0.00000000000000	
1.24499700000000	2.35737000000000	679.07321899999999	37.97658400000000	0.28297800000000	0.00000000000000	0.11468200000000	0.00000000000000	0.00000000000000	0.00000000000000	0.00000000000000	0.00000000000000	0.00000000000000	0.00000000000000	20.31029700000000	0.00000000000000	0.00000000000000	0.00000000000000	0.00000000000000	
1.24666300000000	1.81808900000000	679.65822200000002	38.04563100000000	0.28217700000000	0.00000000000000	0.11473800000000	0.00000000000000	0.00000000000000	0.00000000000000	0.00000000000000	0.00000000000000	0.00000000000000	0.00000000000000	20.44315700000000	0.00000000000000	0.00000000000000	0.00000000000000	0.00000000000000	
1.24833100000000	1.27059700000000	680.29790100000002	38.11811200000000	0.28137700000000	0.00000000000000	0.11479100000000	0.00000000000000	0.00000000000000	0.00000000000000	0.00000000000000	0.00000000000000	0.00000000000000	0.00000000000000	20.57996400000000	0.00000000000000	0.00000000000000	0.00000000000000	0.00000000000000	
1.24999700000000	0.71464200000000	680.99161100000003	38.19394900000000	0.28057900000000	0.00000000000000	0.11484300000000	0.00000000000000	0.00000000000000	0.00000000000000	0.00000000000000	0.00000000000000	0.00000000000000	0.00000000000000	20.72061800000000	0.00000000000000	0.00000000000000	0.00000000000000	0.00000000000000	
1.25166200000000	0.14999100000000	681.73875599999997	38.27307300000000	0.27978000000000	0.00000000000000	0.11489300000000	0.00000000000000	0.00000000000000	0.00000000000000	0.00000000000000	0.00000000000000	0.00000000000000	0.00000000000000	20.86502300000000	0.00000000000000	0.00000000000000	0.00000000000000	0.00000000000000	
1.25332800000000	-0.42356000000000	682.53878499999996	38.35542600000000	0.27897900000000	0.00000000000000	0.11494200000000	0.00000000000000	0.00000000000000	0.00000000000000	0.00000000000000	0.00000000000000	0.00000000000000	0.00000000000000	21.01308500000000	0.00000000000000	0.00000000000000	0.00000000000000	0.00000000000000	
1.25499900000000	-1.00619500000000	683.39120500000001	38.44095800000000	0.27817700000000	0.00000000000000	0.11498900000000	0.00000000000000	0.00000000000000	0.00000000000000	0.00000000000000	0.00000000000000	0.00000000000000	0.00000000000000	21.16471000000000	0.00000000000000	0.00000000000000	0.00000000000000	0.00000000000000	
1.25665900000000	-1.59806800000000	684.29557299999999	38.52962700000000	0.27737100000000	0.00000000000000	0.11503500000000	0.00000000000000	0.00000000000000	0.00000000000000	0.00000000000000	0.00000000000000	0.00000000000000	0.00000000000000	21.31980900000000	0.00000000000000	0.00000000000000	0.00000000000000	0.00000000000000	
1.25832400000000	-2.19930700000000	685.25149799999997	38.62139900000000	0.27656100000000	0.00000000000000	0.11508000000000	0.00000000000000	0.00000000000000	0.00000000000000	0.00000000000000	0.00000000000000	0.00000000000000	0.00000000000000	21.47829400000000	0.00000000000000	0.00000000000000	0.00000000000000	0.00000000000000	
1.25999800000000	-2.81001200000000	686.25864700000000	38.71625100000000	0.27574600000000	0.00000000000000	0.11512300000000	0.00000000000000	0.00000000000000	0.00000000000000	0.00000000000000	0.00000000000000	0.00000000000000	0.00000000000000	21.64007700000000	0.00000000000000	0.00000000000000	0.00000000000000	0.00000000000000	
1.26166500000000	-3.43025100000000	687.31673899999998	38.81416500000000	0.27492500000000	0.00000000000000	0.11516600000000	0.00000000000000	0.00000000000000	0.00000000000000	0.00000000000000	0.00000000000000	0.00000000000000	0.00000000000000	21.80507000000000	0.00000000000000	0.00000000000000	0.00000000000000	0.00000000000000	
1.26333200000000	-4.06006300000000	688.42554399999995	38.91513100000000	0.27409800000000	0.00000000000000	0.11520700000000	0.00000000000000	0.00000000000000	0.00000000000000	0.00000000000000	0.00000000000000	0.00000000000000	0.00000000000000	21.97318700000000	0.00000000000000	0.00000000000000	0.00000000000000	0.00000000000000	
1.26499200000000	-4.69945500000000	689.58488299999999	39.01914900000000	0.27326300000000	0.00000000000000	0.11524700000000	0.00000000000000	0.00000000000000	0.00000000000000	0.00000000000000	0.00000000000000	0.00000000000000	0.00000000000000	22.14434200000000	0.00000000000000	0.00000000000000	0.00000000000000	0.00000000000000	
1.26666000000000	-5.34840000000000	690.79462699999999	39.12622200000000	0.27242000000000	0.00000000000000	0.11528600000000	0.00000000000000	0.00000000000000	0.00000000000000	0.00000000000000	0.00000000000000	0.00000000000000	0.00000000000000	22.31844600000000	0.00000000000000	0.00000000000000	0.00000000000000	0.00000000000000	
